<?xml version="1.0" standalone="no"?>
<!DOCTYPE svg PUBLIC "-//W3C//DTD SVG 20010904//EN"
 "http://www.w3.org/TR/2001/REC-SVG-20010904/DTD/svg10.dtd">
<svg version="1.0" xmlns="http://www.w3.org/2000/svg"
 width="1653.000000pt" height="631.000000pt" viewBox="0 0 1653.000000 631.000000"
 preserveAspectRatio="xMidYMid meet">

<g transform="translate(0.000000,631.000000) scale(0.100000,-0.100000)"
fill="#000000" stroke="none">
<path d="M0 3155 l0 -3155 8265 0 8265 0 0 3155 0 3155 -8265 0 -8265 0 0
-3155z m15620 40 l0 -2245 -7490 0 -7490 0 0 2245 0 2245 7490 0 7490 0 0
-2245z"/>
<path d="M810 3710 l0 -1560 7320 0 7320 0 0 1560 0 1560 -7320 0 -7320 0 0
-1560z m3996 813 c61 -28 39 32 490 -1344 71 -218 70 -243 -9 -280 -59 -26
-109 -25 -138 5 -19 19 -79 192 -254 725 -126 386 -232 698 -236 694 -3 -5
-107 -318 -230 -698 -244 -752 -241 -745 -314 -745 -72 0 -145 48 -145 96 0
25 471 1468 491 1506 5 10 20 25 33 33 50 33 247 38 312 8z m897 17 c10 0 32
-13 48 -29 l29 -29 0 -691 0 -691 357 0 c352 0 357 0 380 -22 19 -18 23 -32
23 -83 0 -107 32 -100 -484 -100 -496 0 -485 -2 -506 72 -8 27 -10 267 -8 785
3 677 5 749 19 764 19 19 75 34 104 28 11 -2 28 -4 38 -4z m6123 -6 c17 -2 44
-19 63 -38 29 -30 58 -110 272 -762 131 -401 239 -741 239 -755 0 -75 -150
-130 -205 -75 -21 21 -151 403 -443 1304 -20 61 -40 112 -44 112 -3 0 -64
-174 -133 -387 -70 -214 -172 -526 -227 -695 -68 -210 -107 -315 -124 -333
-27 -30 -75 -33 -131 -10 -56 24 -73 43 -73 84 0 46 474 1488 497 1513 27 30
49 39 116 47 59 7 123 6 193 -5z m-9431 -32 c101 -48 130 -74 167 -149 l33
-68 0 -220 c0 -144 -4 -234 -12 -260 -21 -67 -62 -120 -129 -164 -35 -23 -64
-46 -64 -51 0 -5 69 -123 154 -262 210 -346 204 -333 165 -382 -41 -52 -125
-80 -168 -56 -10 5 -110 163 -221 350 l-203 340 -93 0 c-83 0 -95 2 -114 22
-28 31 -28 115 1 152 20 26 20 26 172 27 174 0 211 9 244 58 22 32 23 43 23
216 0 173 -1 184 -23 216 -38 57 -48 59 -314 59 l-243 0 0 -693 c0 -600 -2
-695 -15 -714 -35 -50 -151 -54 -196 -7 l-24 26 0 757 c0 821 -1 798 54 820
49 19 66 19 401 18 l335 -2 70 -33z m1428 20 c41 -35 45 -134 6 -173 -18 -18
-35 -19 -339 -19 l-320 0 0 -615 0 -615 335 0 336 0 24 -25 c33 -32 36 -120 6
-156 l-19 -24 -420 0 c-461 0 -458 0 -487 60 -13 29 -15 125 -15 760 0 840 -5
797 90 816 19 4 204 6 411 6 296 -2 379 -5 392 -15z m4439 -9 c18 -19 22 -34
23 -84 0 -102 12 -99 -366 -99 l-319 0 0 -615 0 -615 335 0 336 0 24 -25 c33
-32 36 -120 6 -156 l-19 -24 -414 0 c-323 0 -420 3 -445 13 -64 28 -63 12 -63
810 0 685 1 719 20 759 12 28 27 44 42 47 13 3 32 7 43 10 11 2 190 3 397 3
377 -2 378 -2 400 -24z m1208 -14 c83 -40 130 -80 163 -143 18 -35 22 -61 25
-176 4 -132 3 -135 -21 -158 -53 -50 -185 -35 -207 23 -6 15 -10 64 -10 109 0
70 -4 88 -23 117 -38 56 -50 59 -290 59 -242 0 -263 -4 -294 -63 -13 -24 -18
-63 -21 -157 -4 -139 6 -195 42 -237 l24 -28 274 -5 c267 -6 274 -6 328 -32
85 -40 132 -80 165 -139 l30 -54 0 -250 c0 -237 -1 -252 -22 -290 -32 -60 -90
-110 -168 -147 l-70 -32 -235 -4 c-136 -3 -264 0 -303 6 -132 21 -226 83 -274
180 -24 49 -28 70 -31 177 -5 148 5 178 69 195 50 14 111 5 141 -20 21 -16 24
-30 29 -127 4 -74 11 -118 23 -141 29 -56 58 -62 298 -62 234 0 247 3 285 59
22 32 23 44 23 203 0 278 10 271 -365 278 l-270 5 -60 32 c-73 38 -117 82
-147 148 -22 47 -23 62 -23 260 0 200 1 213 24 262 39 87 138 159 253 183 24
5 160 8 303 7 l260 -2 75 -36z m1458 30 c38 -13 58 -66 48 -124 -14 -73 -22
-75 -241 -75 l-195 0 0 -695 0 -696 -24 -24 c-46 -46 -153 -46 -193 0 l-23 26
0 695 0 694 -194 0 c-231 0 -237 2 -243 91 -5 63 11 100 47 110 43 12 983 10
1018 -2z m2619 -12 c14 -13 18 -34 18 -83 0 -103 -3 -104 -241 -104 l-194 0 0
-698 0 -699 -25 -23 c-51 -48 -183 -32 -205 25 -6 17 -10 282 -10 711 l0 684
-195 0 c-180 0 -197 2 -214 19 -46 46 -35 160 17 180 17 6 209 9 529 8 467 -2
504 -3 520 -20z m1106 4 c9 -7 22 -32 28 -54 13 -50 -2 -111 -31 -127 -11 -6
-140 -10 -334 -10 l-316 0 0 -615 0 -615 335 0 336 0 24 -25 c33 -32 36 -120
6 -156 l-19 -24 -424 0 c-314 0 -428 3 -444 12 -12 7 -29 28 -38 47 -14 30
-16 110 -16 761 0 840 -5 797 90 816 19 4 204 6 411 6 301 -2 379 -5 392 -16z
m-11066 -612 c38 -14 83 -57 99 -96 61 -141 -97 -284 -235 -213 -95 48 -119
176 -48 257 51 58 118 77 184 52z m4430 0 c34 -13 80 -55 99 -91 37 -72 1
-174 -75 -215 -55 -28 -102 -29 -157 -2 -101 48 -123 188 -42 266 53 51 113
66 175 42z m6400 0 c38 -14 83 -57 99 -96 46 -107 -40 -233 -158 -233 -142 0
-219 170 -125 277 51 58 118 77 184 52z m-9691 -380 c59 -28 84 -71 84 -143 0
-52 -3 -60 -37 -97 -87 -92 -230 -60 -263 59 -26 99 46 200 144 202 16 0 49
-9 72 -21z m7062 -6 c51 -38 67 -70 67 -133 0 -44 -5 -66 -21 -87 -86 -115
-262 -74 -281 65 -3 22 -3 52 1 66 8 34 54 86 91 102 39 18 110 12 143 -13z"/>
</g>
</svg>
